<?xml version="1.0" encoding="UTF-8"?>
<svg version="1.1" xmlns="http://www.w3.org/2000/svg" width="2000" height="820">
<path d="M0 0 C2.47633383 2.1874924 4.8785817 4.43030714 7.26171875 6.71875 C8.0815625 7.48703125 8.90140625 8.2553125 9.74609375 9.046875 C14.52924997 13.65177695 18.82611474 18.4776704 22.88671875 23.71875 C23.325 24.28303711 23.76328125 24.84732422 24.21484375 25.42871094 C27.26171875 29.460906 27.26171875 29.460906 27.26171875 31.71875 C25.43225043 33.07413683 23.54437236 34.35081578 21.63671875 35.59375 C13.98634036 40.71314416 7.09689825 46.56824109 0.26171875 52.71875 C-0.41503906 53.32203125 -1.09179688 53.9253125 -1.7890625 54.546875 C-27.8194444 79.14838152 -42.60064453 115.5151635 -43.921875 150.92578125 C-44.81993083 189.97992785 -31.63245459 226.27000017 -4.73828125 254.71875 C-3.0913364 256.40490782 -1.42702004 258.07445171 0.26171875 259.71875 C0.99636353 260.48626587 0.99636353 260.48626587 1.74584961 261.26928711 C5.9134601 265.58327935 10.27600989 269.1784681 15.19921875 272.59375 C15.92705566 273.10405762 16.65489258 273.61436523 17.40478516 274.14013672 C23.73443165 278.50395288 30.30694304 282.32378725 37.06640625 285.9765625 C40.26171875 287.71875 40.26171875 287.71875 43.26171875 289.71875 C42.70517217 296.48366967 40.34856422 302.36941922 37.88671875 308.65625 C37.44263672 309.79707031 36.99855469 310.93789063 36.54101562 312.11328125 C24.69120547 342.14384909 9.56617756 369.99315144 -9.51611328 396.03613281 C-10.78323005 397.78063317 -12.0270044 399.53985553 -13.265625 401.3046875 C-21.61616405 413.19018631 -30.78997387 424.14595033 -40.73828125 434.71875 C-41.46660156 435.5128125 -42.19492187 436.306875 -42.9453125 437.125 C-58.56568344 453.58579907 -79.3701591 464.55536744 -102.19848633 465.19018555 C-122.98979431 465.36410297 -138.6564412 459.82546969 -157.72460938 451.95410156 C-169.9067909 446.9604335 -181.68685597 442.70829654 -194.73828125 440.71875 C-195.5065625 440.58855469 -196.27484375 440.45835937 -197.06640625 440.32421875 C-223.35291224 436.56183717 -247.81978544 443.94670988 -271.83203125 453.7265625 C-295.7366033 463.46234478 -321.44712605 471.48218396 -346.73828125 461.71875 C-364.68354258 453.97546966 -380.31922025 440.62686331 -392.73828125 425.71875 C-393.53492188 424.80996094 -394.3315625 423.90117188 -395.15234375 422.96484375 C-416.03718067 399.05360899 -434.51233203 371.07028902 -448.73828125 342.71875 C-449.48730713 341.23713379 -449.48730713 341.23713379 -450.25146484 339.72558594 C-469.18513187 302.02407693 -482.22385755 262.18829519 -489.55078125 220.65625 C-489.74583252 219.55273193 -489.94088379 218.44921387 -490.1418457 217.31225586 C-493.0771544 199.72500482 -494.12134292 182.27991066 -494.05078125 164.46875 C-494.0486261 163.48329193 -494.04647095 162.49783386 -494.04425049 161.48251343 C-493.99253763 146.71669848 -493.59413261 132.24946539 -490.73828125 117.71875 C-490.53960449 116.68379395 -490.34092773 115.64883789 -490.13623047 114.58251953 C-485.90167188 93.1623142 -479.27243663 72.87393923 -468.73828125 53.71875 C-468.37009277 53.03506348 -468.0019043 52.35137695 -467.62255859 51.64697266 C-451.64792837 22.19226936 -427.3764608 -0.92072201 -397.73828125 -16.28125 C-397.13048828 -16.60077637 -396.52269531 -16.92030273 -395.89648438 -17.24951172 C-363.44940861 -34.09838684 -325.31256745 -37.61588004 -290.42089844 -27.13085938 C-279.14331761 -23.55914648 -268.05269845 -19.37176542 -257.0390625 -15.0625 C-229.81103199 -4.41241262 -212.16501596 -4.47935611 -184.97503662 -15.16729736 C-180.92667152 -16.7553613 -176.86386007 -18.30551543 -172.80078125 -19.85546875 C-172.00864227 -20.15791504 -171.2165033 -20.46036133 -170.40036011 -20.77197266 C-113.00509135 -42.59015815 -48.85759811 -40.70304892 0 0 Z " fill="#000000" transform="translate(494.73828125,194.28125)"/>
<path d="M0 0 C315.07602339 0 315.07602339 0 368 50 C369.32941948 51.12962233 370.66263718 52.25479312 372 53.375 C394.53096476 73.20764563 409.55526847 100.87619378 419 129 C419.3724585 130.09489746 419.3724585 130.09489746 419.75244141 131.21191406 C437.49595108 184.30718418 432.79961906 246.32078759 408.39453125 296.42578125 C403.10786931 306.97180091 397.24590064 316.69750709 390 326 C389.01386719 327.31871094 389.01386719 327.31871094 388.0078125 328.6640625 C357.24302818 368.28718939 309.95848879 392.70592581 260.58406639 399.25004101 C243.82463336 401.27722166 227.22418407 401.3971254 210.3764801 401.30384064 C206.70060587 401.28639338 203.02479305 401.28593211 199.34887695 401.28381348 C188.69088098 401.26824678 178.03293648 401.22636411 167.375 401.1875 C143.49125 401.125625 119.6075 401.06375 95 401 C95 469.64 95 538.28 95 609 C63.65 609 32.3 609 0 609 C0 408.03 0 207.06 0 0 Z M95 80 C95 159.53 95 239.06 95 321 C114.820625 321.061875 134.64125 321.12375 155.0625 321.1875 C161.27457275 321.21481201 167.48664551 321.24212402 173.88696289 321.27026367 C179.5534567 321.28030929 179.5534567 321.28030929 185.21995544 321.28633118 C187.70479453 321.29087767 190.18962786 321.30130019 192.67442322 321.31672668 C229.19622972 321.53173473 267.60648016 317.46282141 296 292 C296.50821289 291.54931152 297.01642578 291.09862305 297.54003906 290.63427734 C318.15608895 272.10046139 329.84238834 244.98873524 331.87109375 217.45166016 C333.0978549 194.11996416 331.98667987 172.0470624 324 150 C323.63132812 148.95585937 323.26265625 147.91171875 322.8828125 146.8359375 C317.67363812 133.22023343 309.19839185 122.21330178 299 112 C298.28328125 111.27167969 297.5665625 110.54335937 296.828125 109.79296875 C283.55805343 97.14649077 265.46438128 89.62536464 248 85 C246.95585938 84.72285156 245.91171875 84.44570312 244.8359375 84.16015625 C199.76444059 73.74708627 132.40960467 80 95 80 Z " fill="#000000" transform="translate(713,46)"/>
<path d="M0 0 C1.61092521 1.49273931 3.215312 2.99257133 4.8125 4.5 C5.56144531 5.18449219 6.31039063 5.86898437 7.08203125 6.57421875 C30.94845827 29.18671791 42.94491382 63.18992841 43.90294278 95.55547082 C43.93760881 98.92656556 43.94106289 102.29626289 43.93275452 105.66752625 C43.93403615 107.59272676 43.93403615 107.59272676 43.93534368 109.55682021 C43.93756273 113.08926991 43.93360315 116.62168885 43.92856562 120.15413463 C43.92422381 123.97469951 43.92571018 127.79526282 43.9264679 131.61582947 C43.92699077 138.22527663 43.92386867 144.83471388 43.91823006 151.44415855 C43.91008302 161.00015918 43.90749656 170.55615503 43.90624207 180.11215875 C43.90405657 195.61831363 43.89741013 211.12446322 43.88793945 226.63061523 C43.87875232 241.68823215 43.87167785 256.74584764 43.86743164 271.8034668 C43.86703756 273.19704579 43.86703756 273.19704579 43.86663551 274.61877789 C43.86533042 279.27983114 43.86406672 283.94088439 43.86282361 288.60193765 C43.85246665 327.23462979 43.83403679 365.86731216 43.8125 404.5 C14.4425 404.5 -14.9275 404.5 -45.1875 404.5 C-45.5175 381.07 -45.8475 357.64 -46.1875 333.5 C-49.6525 338.945 -49.6525 338.945 -53.1875 344.5 C-58.1443265 351.20089509 -63.51330405 357.39850033 -69.1875 363.5 C-69.78949219 364.16773438 -70.39148437 364.83546875 -71.01171875 365.5234375 C-81.44214074 376.61000318 -94.77926551 384.55093753 -108.1875 391.5 C-108.79529297 391.81952637 -109.40308594 392.13905273 -110.02929688 392.46826172 C-129.92200637 402.7979993 -153.78430939 408.86776272 -176.1875 409.5 C-176.88601074 409.52046387 -177.58452148 409.54092773 -178.30419922 409.56201172 C-222.80725113 410.68175996 -264.54618095 399.50202068 -298.1875 369.5 C-298.91710938 368.85546875 -299.64671875 368.2109375 -300.3984375 367.546875 C-311.40834823 357.21104043 -319.11767694 344.18755849 -325.1875 330.5 C-325.66960937 329.42234375 -326.15171875 328.3446875 -326.6484375 327.234375 C-339.04841197 297.32413354 -338.88366946 260.74031978 -327.11474609 230.71728516 C-322.41671263 219.48307243 -316.52269107 209.43532482 -308.1875 200.5 C-307.72972168 200.00661133 -307.27194336 199.51322266 -306.80029297 199.00488281 C-300.19008139 191.94603434 -293.33440195 185.77579274 -285.1875 180.5 C-284.59936523 180.11634277 -284.01123047 179.73268555 -283.40527344 179.33740234 C-261.67344729 165.34317126 -237.34954897 157.66627846 -212.125 152.8125 C-211.15344971 152.62204102 -210.18189941 152.43158203 -209.1809082 152.23535156 C-187.05980429 148.23080452 -164.44368237 146.95964453 -142.03515625 145.67578125 C-139.46395216 145.52366733 -136.89278066 145.37100168 -134.32164001 145.21781921 C-129.00200563 144.90219242 -123.68216263 144.59056883 -118.36206055 144.28295898 C-110.86560047 143.84949526 -103.36973363 143.40634512 -95.87392819 142.96172583 C-90.01112336 142.61438921 -84.14813919 142.27009565 -78.28515625 141.92578125 C-76.42548564 141.81633399 -76.42548564 141.81633399 -74.52824593 141.70467567 C-71.03593251 141.49979408 -67.54350437 141.29700805 -64.05102539 141.0949707 C-63.01895462 141.03422867 -61.98688385 140.97348663 -60.92353821 140.91090393 C-59.97267334 140.85634033 -59.02180847 140.80177673 -58.04212952 140.74555969 C-56.809396 140.67397377 -56.809396 140.67397377 -55.55175877 140.60094166 C-53.0941202 140.49601316 -50.64707162 140.48281504 -48.1875 140.5 C-48.28221844 135.05946508 -48.3885473 129.61931491 -48.50488281 124.17919922 C-48.54277802 122.3348586 -48.57769349 120.49045392 -48.609375 118.64599609 C-49.04289189 93.70522759 -51.79962651 71.9860294 -70.1875 53.5 C-70.70570313 52.94699219 -71.22390625 52.39398438 -71.7578125 51.82421875 C-88.65349718 35.41505902 -117.41827751 31.95108921 -139.7980957 32.14672852 C-163.08776866 32.78760225 -186.37130005 38.85731058 -204.1875 54.5 C-204.93644531 55.14324219 -205.68539063 55.78648437 -206.45703125 56.44921875 C-215.96985665 65.21657572 -221.20311708 76.36932921 -225.1875 88.5 C-225.8475 90.15 -226.5075 91.8 -227.1875 93.5 C-255.5675 93.5 -283.9475 93.5 -313.1875 93.5 C-312.01206666 75.86849996 -312.01206666 75.86849996 -310.0625 68.0625 C-309.84585693 67.1770752 -309.62921387 66.29165039 -309.40600586 65.37939453 C-307.23591975 56.9613099 -304.05692914 49.26476964 -300.1875 41.5 C-299.6925 40.49582031 -299.1975 39.49164063 -298.6875 38.45703125 C-293.0579757 27.61101841 -285.561331 18.33828493 -277.1875 9.5 C-276.36636719 8.61441406 -275.54523438 7.72882813 -274.69921875 6.81640625 C-263.23781534 -5.15439287 -249.83866866 -13.904331 -235.1875 -21.5 C-234.0325 -22.10457031 -232.8775 -22.70914063 -231.6875 -23.33203125 C-212.27916437 -32.92789362 -191.50548297 -38.22972698 -170.1875 -41.5 C-169.3330127 -41.63132324 -168.47852539 -41.76264648 -167.59814453 -41.89794922 C-110.45792852 -50.16351506 -44.17566444 -39.08630218 0 0 Z M-80.19921875 206.70703125 C-82.25592038 206.83444846 -84.31262723 206.96178144 -86.36933899 207.08903503 C-90.6755033 207.35643053 -94.98147617 207.62670631 -99.28735352 207.89868164 C-104.73342295 208.24218835 -110.18004901 208.57576386 -115.62689495 208.90669727 C-119.87875474 209.16668295 -124.13016053 209.43360121 -128.38147926 209.70227623 C-130.38502918 209.82783856 -132.38872745 209.95106173 -134.39258385 210.07163429 C-145.28339585 210.729856 -156.10938974 211.62679619 -166.94067383 212.95581055 C-167.9080054 213.07319737 -168.87533697 213.1905842 -169.87198162 213.31152821 C-191.6074095 216.10690749 -216.02749327 222.84109221 -230.6015625 240.41015625 C-240.26932496 254.19440415 -244.19797998 268.73332355 -241.7265625 285.65625 C-238.25535138 301.17460561 -229.83287071 313.54687008 -216.5625 322.3125 C-200.72480842 332.2031894 -182.66582185 335.7744708 -164.1875 336.5 C-163.37410156 336.54125 -162.56070312 336.5825 -161.72265625 336.625 C-130.28322431 337.4848819 -98.7548283 326.36126017 -75.68798828 304.94873047 C-58.44868969 288.3040839 -48.57039103 265.56226866 -48.03051758 241.61401367 C-47.96785991 236.1379744 -48.01215294 230.66345559 -48.0625 225.1875 C-48.0725544 223.27148908 -48.08167588 221.35547302 -48.08984375 219.43945312 C-48.11165197 214.79283966 -48.14604491 210.14647801 -48.1875 205.5 C-58.88147775 205.22786794 -69.53340521 206.03770067 -80.19921875 206.70703125 Z " fill="#000000" transform="translate(1500.1875,250.5)"/>
<path d="M0 0 C33 0 66 0 100 0 C101.761584 4.69755733 103.45735182 9.26237497 104.95092773 14.02709961 C105.4856646 15.72765755 105.4856646 15.72765755 106.03120422 17.46257019 C106.60163704 19.2890081 106.60163704 19.2890081 107.18359375 21.15234375 C107.59446347 22.46268024 108.00549381 23.77296637 108.41667175 25.08320618 C109.52728528 28.62475055 110.63477751 32.16726361 111.74146271 35.71003723 C112.4440002 37.95830198 113.14738174 40.20630103 113.85101318 42.45422363 C121.12019004 65.67970011 128.30855505 88.92940498 135.44970417 112.19451904 C142.62872291 135.58153215 149.86828275 158.94948734 157.125 182.3125 C159.42329146 189.71220406 161.72150429 197.11193254 164.01953125 204.51171875 C164.30625513 205.43495186 164.59297901 206.35818497 164.88839149 207.30939484 C169.27006226 221.41887198 173.64395161 235.53074406 178.01171875 249.64453125 C178.29732288 250.56739048 178.58292702 251.49024971 178.87718582 252.44107437 C181.67860842 261.49353903 184.47910716 270.54628896 187.27818871 279.59947777 C188.59532286 283.85937776 189.91277667 288.11917881 191.23046875 292.37890625 C191.48258495 293.1939349 191.73470116 294.00896355 191.99445724 294.84869003 C195.224638 305.28884781 198.47065351 315.72384317 201.73828125 326.15234375 C202.08282852 327.25328369 202.42737579 328.35422363 202.78236389 329.48852539 C204.29856042 334.33275549 205.81833574 339.17577885 207.34692383 344.01611328 C207.84863733 345.6161585 208.35019631 347.21625217 208.8515625 348.81640625 C209.07511917 349.51813461 209.29867584 350.21986298 209.52900696 350.94285583 C210.40664736 353.75676982 211 356.03049783 211 359 C211.66 359 212.32 359 213 359 C213.08507813 358.10796875 213.17015625 357.2159375 213.2578125 356.296875 C214.10331461 350.43979807 216.08604573 344.87286315 217.875 339.25 C218.27525574 337.97808473 218.67499265 336.7060061 219.07424927 335.43377686 C219.92897958 332.71347189 220.78695411 329.99422067 221.64752197 327.27575684 C223.02321866 322.92945952 224.3910768 318.58072094 225.75732422 314.23144531 C226.22250104 312.75079263 226.68768049 311.27014078 227.15286255 309.78948975 C227.38378727 309.05441948 227.61471199 308.31934921 227.85263443 307.56200409 C228.55739416 305.31951263 229.26284261 303.07723887 229.96847534 300.83502197 C234.06351306 287.81986397 238.10480659 274.78846848 242.125 261.75 C243.1543965 258.41420136 244.18403013 255.07847597 245.21366882 251.74275208 C245.94056689 249.38778651 246.66738207 247.03279536 247.39411926 244.67778015 C252.17885895 229.17522358 256.97820379 213.67718515 261.77624512 198.17874146 C263.44378046 192.79231144 265.1110641 187.40580353 266.77832031 182.01928711 C271.87402985 165.55652442 276.97059446 149.09402716 282.06938171 132.63221741 C284.83833159 123.6924387 287.60684167 114.75252383 290.375 105.8125 C290.64383121 104.94429249 290.91266243 104.07608498 291.18964005 103.18156815 C297.16471307 83.88393073 303.13323394 64.58430326 309.078125 45.27734375 C309.29924706 44.55921572 309.52036911 43.84108768 309.74819183 43.1011982 C314.17090079 28.73580454 318.58428647 14.36754553 323 0 C355.34 0 387.68 0 421 0 C412.9654371 24.10368869 412.9654371 24.10368869 409.86328125 32.67578125 C409.50628143 33.66893341 409.14928162 34.66208557 408.78146362 35.68533325 C408.02124194 37.79946011 407.25995945 39.9132058 406.49765015 42.02658081 C404.83703588 46.63076055 403.18222191 51.2370198 401.52687073 55.84309387 C400.65673129 58.26408019 399.78631705 60.68496775 398.91563416 63.10575867 C394.32253895 75.87691713 389.75203904 88.65611162 385.1875 101.4375 C384.77796082 102.5839801 384.36842163 103.73046021 383.94647217 104.91168213 C377.01543983 124.31755715 370.12305993 143.7370109 363.23852921 163.15941238 C356.65096473 181.74336671 350.03565595 200.3170872 343.375 218.875 C342.98896606 219.95060181 342.60293213 221.02620361 342.2052002 222.13439941 C340.64736714 226.47476272 339.08948229 230.81510744 337.53152466 235.15542603 C333.07295439 247.57900818 328.62786944 260.00740225 324.1875 272.4375 C323.77660126 273.58769623 323.36570251 274.73789246 322.94235229 275.92294312 C316.01256005 295.32551496 309.12118778 314.74158688 302.23808289 334.16075134 C294.9131037 354.82605253 287.54889223 375.4769129 280.12841797 396.1081543 C276.14022638 407.20265168 272.17859975 418.30590894 268.26332664 429.4263382 C237.61687159 516.4637247 237.61687159 516.4637247 218 544 C217.26265625 545.03898438 216.5253125 546.07796875 215.765625 547.1484375 C210.89944649 553.81006808 205.66494111 560.00749427 200 566 C199.24203125 566.82242188 198.4840625 567.64484375 197.703125 568.4921875 C173.64718793 593.72733717 137.59953544 605.93544548 103.2565918 607.09242249 C100.31640526 607.13092932 97.37792976 607.13870156 94.4375 607.1328125 C93.36556396 607.13376923 92.29362793 607.13472595 91.18920898 607.13571167 C88.93701112 607.13638807 86.68481124 607.13457174 84.43261719 607.13037109 C81.00972055 607.12501521 77.58695511 607.13033459 74.1640625 607.13671875 C71.96354138 607.13605787 69.76302034 607.13477651 67.5625 607.1328125 C66.55179443 607.13483673 65.54108887 607.13686096 64.49975586 607.13894653 C47.08222904 607.08222904 47.08222904 607.08222904 45 605 C44.90556665 602.69946165 44.88257872 600.39597827 44.88647461 598.09350586 C44.88632858 597.37159561 44.88618256 596.64968536 44.8860321 595.90589905 C44.88673131 593.50885053 44.89452405 591.11187877 44.90234375 588.71484375 C44.9042079 587.05717511 44.90563182 585.39950593 44.90663147 583.74183655 C44.91045688 579.37045786 44.92028735 574.99911219 44.93133545 570.62774658 C44.94154908 566.17045539 44.94612899 561.71315889 44.95117188 557.25585938 C44.9619096 548.50389107 44.97898629 539.75194964 45 531 C46.19568604 531.06928711 47.39137207 531.13857422 48.62329102 531.20996094 C50.22932559 531.30149963 51.83536422 531.39296716 53.44140625 531.484375 C54.2250354 531.52997559 55.00866455 531.57557617 55.81604004 531.62255859 C79.70089987 532.97372063 103.36925725 532.44657023 123 517 C123.91845703 516.34451172 123.91845703 516.34451172 124.85546875 515.67578125 C139.63590864 504.41288312 147.18717922 482.88297114 152.78540039 465.8515625 C153.57361869 463.466354 154.39225765 461.0929755 155.21289062 458.71875 C155.72840351 457.17769797 156.24214318 455.63605136 156.75390625 454.09375 C156.99645645 453.3977771 157.23900665 452.7018042 157.48890686 451.98474121 C160.51208857 442.56298006 157.07978709 434.71857483 153.79296875 425.80859375 C153.36080048 424.61647278 152.9286322 423.42435181 152.48336792 422.19610596 C151.30677412 418.95093961 150.11995656 415.70959921 148.93129349 412.46883774 C147.67311538 409.03268951 146.4248344 405.59294916 145.17553711 402.15356445 C142.86390202 395.79367885 140.54443402 389.4366847 138.22146893 383.08092976 C135.77421827 376.38434729 133.33525385 369.68476126 130.8984375 362.984375 C130.49641617 361.87896866 130.09439484 360.77356232 129.68019104 359.63465881 C128.87591846 357.42312978 128.0716834 355.2115871 127.26748657 353.00003052 C126.05052233 349.65457315 124.83235511 346.30955565 123.61401367 342.96459961 C116.94503026 324.64661341 110.3492515 306.30278669 103.76588821 287.95391464 C96.88856227 268.78619404 89.97345688 249.63302085 83 230.5 C75.77840657 210.68616877 68.6217922 190.84985022 61.5 171 C53.86724961 149.72617069 46.18889383 128.46979095 38.4519043 107.23358154 C31.67812637 88.64005298 24.95684884 70.02815189 18.26489258 51.4050293 C14.92947437 42.12486163 11.58810741 32.84710035 8.2109375 23.58203125 C7.92152283 22.78790833 7.63210815 21.9937854 7.33392334 21.17559814 C6.00852782 17.54071023 4.68075034 13.90671347 3.34960938 10.27392578 C2.67768555 8.43483643 2.67768555 8.43483643 1.9921875 6.55859375 C1.60401855 5.49954834 1.21584961 4.44050293 0.81591797 3.34936523 C0 1 0 1 0 0 Z " fill="#000000" transform="translate(1579,213)"/>
<path d="M0 0 C6.90956572 31.09304574 -7.65926854 67.15689196 -24 93 C-29.28108426 100.92733444 -35.47822211 108.0781874 -42 115 C-42.54914063 115.60199219 -43.09828125 116.20398438 -43.6640625 116.82421875 C-63.33897698 137.61372198 -93.27661179 152.33370661 -122.05078125 153.2421875 C-126.04116236 153.28520391 -130.01408989 153.18587146 -134 153 C-135.30658794 110.40523308 -121.81385674 73.82767456 -92.49365234 42.51635742 C-69.6057309 18.80809367 -33.75747058 -1.31807911 0 0 Z " fill="#000000" transform="translate(401,0)"/>
</svg>
