<svg width="150" height="31" viewBox="0 0 150 31" fill="none" xmlns="http://www.w3.org/2000/svg">
<path d="M0 30.8653H8.19436V18.5659H8.3856C9.82941 23.2559 13.2047 26.0803 17.6843 26.0803C23.8516 26.0803 28.6229 20.5312 28.6229 13.3063C28.6229 5.50708 22.7903 0.00537109 14.5529 0.00537109C5.541 0.00537109 0 5.3172 0 14.0753V30.87V30.8653ZM14.1704 19.3824C10.4605 19.3824 7.90751 16.8475 7.90751 13.1639C7.90751 9.48027 10.4605 6.9454 14.1704 6.9454C17.8804 6.9454 20.4333 9.48027 20.4333 13.1639C20.4333 16.8475 17.8804 19.3824 14.1704 19.3824Z" fill="#1C51FB"/>
<path d="M30.5546 13.3057C30.5546 20.5305 35.3259 26.0797 41.4932 26.0797C45.9728 26.0797 49.3481 23.2553 50.7919 18.5653H50.9831V25.6003H59.1775V13.9228C59.1775 5.16468 53.9233 0 45.0071 0C36.0908 0 30.5498 5.50171 30.5498 13.3009L30.5546 13.3057ZM45.0119 19.3818C41.3019 19.3818 38.7489 16.8469 38.7489 13.1633C38.7489 9.47965 41.3019 6.94478 45.0119 6.94478C48.7218 6.94478 51.2748 9.47965 51.2748 13.1633C51.2748 16.8469 48.7218 19.3818 45.0119 19.3818Z" fill="#1C51FB"/>
<path d="M87.2744 18.9025V0.72168H79.08V9.2377C79.08 12.4894 77.1533 14.597 74.2131 14.597C71.2729 14.597 69.3462 12.4894 69.3462 9.2377V0.72168H61.1519V10.9134C61.1519 17.4214 64.7184 21.2949 70.5988 21.2949C74.6482 21.2949 77.6362 18.5654 78.841 14.3074H79.08V18.6604C79.08 22.0592 77.2011 23.9247 73.6824 23.9247H63.1789V30.8648H74.7438C82.6943 30.8648 87.2744 26.4644 87.2744 18.9025Z" fill="#1C51FB"/>
<path d="M103.85 19.3824C100.14 19.3824 97.5869 16.8475 97.5869 13.1639C97.5869 9.48027 100.14 6.9454 103.85 6.9454C107.56 6.9454 110.113 9.48027 110.113 13.1639C110.113 16.8475 107.56 19.3824 103.85 19.3824ZM103.85 26.3224C112.235 26.3224 118.307 20.7733 118.307 13.1639C118.307 5.55455 112.235 0.00537109 103.85 0.00537109C95.4642 0.00537109 89.3926 5.55455 89.3926 13.1639C89.3926 20.7733 95.4642 26.3224 103.85 26.3224Z" fill="#1C51FB"/>
<path d="M120.429 30.8653H128.624V18.5659H128.815C130.259 23.2559 133.634 26.0803 138.114 26.0803C144.281 26.0803 149.052 20.5312 149.052 13.3063C149.052 5.50708 143.219 0.00537109 134.982 0.00537109C125.97 0.00537109 120.429 5.3172 120.429 14.0753V30.87V30.8653ZM134.595 19.3824C130.885 19.3824 128.332 16.8475 128.332 13.1639C128.332 9.48027 130.885 6.9454 134.595 6.9454C138.305 6.9454 140.858 9.48027 140.858 13.1639C140.858 16.8475 138.305 19.3824 134.595 19.3824Z" fill="#1C51FB"/>
</svg>
