<svg xmlns="http://www.w3.org/2000/svg" viewBox="0 0 180 108" role="img" aria-labelledby="unionpay-title">
  <title id="unionpay-title">UnionPay</title>
  <defs>
    <clipPath id="unionpay-card-shape">
      <path d="M47.5 23h91.3c7.5 0 12.9 6.5 11.5 13.8l-6.8 34.4C142.2 78 136.2 83 129.3 83H38c-7.5 0-12.9-6.5-11.5-13.8l6.8-34.4C34.6 28 40.6 23 47.5 23Z"/>
    </clipPath>
  </defs>
  <g clip-path="url(#unionpay-card-shape)">
    <path fill="#E72E3F" d="M18 23h57L58 83H1l17-60Z"/>
    <path fill="#00529B" d="M65 23h57l-17 60H48l17-60Z"/>
    <path fill="#008C84" d="M112 23h57l-17 60H95l17-60Z"/>
  </g>
  <path fill="#fff" d="M48.2 45.1h7.4l-3.4 16.2c-.7 3.6.9 5.3 4 5.3 3.2 0 5.5-1.7 6.2-5.3l3.4-16.2h7.4l-3.6 17.2c-1.5 7.1-7 10.9-14.8 10.9-7.9 0-11.6-3.8-10.1-10.9l3.5-17.2Zm28.6 7.3h6.6l-.5 2.4c1.8-1.8 4-2.8 6.4-2.8 4.1 0 6.1 2.5 5.2 6.8l-2.9 13.7h-6.8l2.5-11.8c.5-2.2-.3-3.4-2.3-3.4-2.1 0-3.4 1.2-3.9 3.4l-2.5 11.8h-6.8l5-20.1Zm22.4 0h6.8l-4.2 20.1H95l4.2-20.1Zm1.2-5.8c.5-2.2 2.3-3.7 4.7-3.7 2.3 0 3.5 1.5 3 3.7-.4 2.2-2.3 3.7-4.6 3.7-2.4 0-3.6-1.5-3.1-3.7Zm8.9 15.9c1.3-6.2 6.4-10.5 12.8-10.5 6.5 0 9.8 4.3 8.5 10.5-1.3 6.3-6.5 10.5-12.9 10.5-6.4 0-9.7-4.2-8.4-10.5Zm14.4 0c.6-2.9-.7-4.8-2.9-4.8-2.3 0-4.3 1.9-4.9 4.8-.6 3 .6 4.9 2.9 4.9s4.3-1.9 4.9-4.9Zm11.2-10.1h6.6l-.5 2.4c1.8-1.8 4-2.8 6.4-2.8 4.1 0 6.1 2.5 5.2 6.8l-2.9 13.7h-6.8l2.5-11.8c.5-2.2-.3-3.4-2.3-3.4-2.1 0-3.4 1.2-3.9 3.4l-2.5 11.8h-6.8l5-20.1Z"/>
</svg>
